<?xml version="1.0" encoding="utf-8"?>
<!-- Generator: Adobe Illustrator 16.0.4, SVG Export Plug-In . SVG Version: 6.00 Build 0)  -->
<!DOCTYPE svg PUBLIC "-//W3C//DTD SVG 1.1//EN" "http://www.w3.org/Graphics/SVG/1.1/DTD/svg11.dtd">
<svg version="1.1" id="Layer_1" xmlns="http://www.w3.org/2000/svg" xmlns:xlink="http://www.w3.org/1999/xlink" x="0px" y="0px"
	width="800.0px" height="800.0px" viewBox="0 0 800 800" enable-background="new 0 0 800 800"
	xml:space="preserve">
  <g transform="translate(400 400)">
    <g transform="rotate(0)">
      <colortri points="-20 0 20 0 0 173.2" colors="1 0 0 1 0 1 0 1 0 0 1 1" />
    </g>
  </g>
  <g transform="translate(400 400)">
    <g transform="rotate(45)">
      <colortri points="-20 0 20 0 0 173.2" colors="1 0 0 1 0 1 0 1 0 0 1 1" />
    </g>
  </g>
  <g transform="translate(400 400)">
    <g transform="rotate(90)">
      <colortri points="-20 0 20 0 0 173.2" colors="1 0 0 1 0 1 0 1 0 0 1 1" />
    </g>
  </g>
  <g transform="translate(400 400)">
    <g transform="rotate(135)">
      <colortri points="-20 0 20 0 0 173.2" colors="1 0 0 1 0 1 0 1 0 0 1 1" />
    </g>
  </g>
  <g transform="translate(400 400)">
    <g transform="rotate(180)">
      <colortri points="-20 0 20 0 0 173.2" colors="1 0 0 1 0 1 0 1 0 0 1 1" />
    </g>
  </g>
  <g transform="translate(400 400)">
    <g transform="rotate(225)">
      <colortri points="-20 0 20 0 0 173.2" colors="1 0 0 1 0 1 0 1 0 0 1 1" />
    </g>
  </g>
  <g transform="translate(400 400)">
    <g transform="rotate(270)">
      <colortri points="-20 0 20 0 0 173.2" colors="1 0 0 1 0 1 0 1 0 0 1 1" />
    </g>
  </g>
  <g transform="translate(400 400)">
    <g transform="rotate(315)">
      <colortri points="-20 0 20 0 0 173.2" colors="1 0 0 1 0 1 0 1 0 0 1 1" />
    </g>
  </g>
</svg>
